{
  "accessors": [
    {
      "bufferView": 0,
      "byteOffset": 0,
      "componentType": 5123,
      "count": 271449,
      "max": [
        65533.0
      ],
      "min": [
        0.0
      ],
      "name": "buffer-0-group-0-mesh-0-indices",
      "type": "SCALAR"
    },
    {
      "bufferView": 1,
      "byteOffset": 0,
      "componentType": 5126,
      "count": 65534,
      "max": [
        44.21699142456055,
        -18.814069747924805,
        36.86915969848633
      ],
      "min": [
        -42.39152145385742,
        -73.4368667602539,
        -38.6703987121582
      ],
      "name": "buffer-0-group-0-mesh-0-position",
      "type": "VEC3"
    },
    {
      "bufferView": 1,
      "byteOffset": 786408,
      "componentType": 5126,
      "count": 65534,
      "max": [
        0.9999875426292419,
        0.9933828115463257,
        0.9998908042907715
      ],
      "min": [
        -0.9999937415122986,
        -0.9999993443489075,
        -0.9999047517776489
      ],
      "name": "buffer-0-group-0-mesh-0-normal",
      "type": "VEC3"
    },
    {
      "bufferView": 2,
      "byteOffset": 0,
      "componentType": 5126,
      "count": 65534,
      "max": [
        0.42774999141693115,
        -0.032349999994039536
      ],
      "min": [
        0.0012400000123307109,
        -0.9981300234794617
      ],
      "name": "buffer-0-group-0-mesh-0-texcoord",
      "type": "VEC2"
    },
    {
      "bufferView": 0,
      "byteOffset": 542898,
      "componentType": 5123,
      "count": 325398,
      "max": [
        65533.0
      ],
      "min": [
        0.0
      ],
      "name": "buffer-0-group-0-mesh-1-indices",
      "type": "SCALAR"
    },
    {
      "bufferView": 1,
      "byteOffset": 1572816,
      "componentType": 5126,
      "count": 65534,
      "max": [
        44.36608123779297,
        28.920089721679688,
        38.93872833251953
      ],
      "min": [
        -44.36608123779297,
        -20.26445960998535,
        -39.12459945678711
      ],
      "name": "buffer-0-group-0-mesh-1-position",
      "type": "VEC3"
    },
    {
      "bufferView": 1,
      "byteOffset": 2359224,
      "componentType": 5126,
      "count": 65534,
      "max": [
        0.9999938011169434,
        0.9999608397483826,
        0.9999023079872131
      ],
      "min": [
        -0.9999883770942688,
        -0.9996889233589172,
        -0.9999583959579468
      ],
      "name": "buffer-0-group-0-mesh-1-normal",
      "type": "VEC3"
    },
    {
      "bufferView": 2,
      "byteOffset": 524272,
      "componentType": 5126,
      "count": 65534,
      "max": [
        0.4152800142765045,
        -0.014410000294446945
      ],
      "min": [
        0.0013000000035390258,
        -0.9465299844741821
      ],
      "name": "buffer-0-group-0-mesh-1-texcoord",
      "type": "VEC2"
    },
    {
      "bufferView": 0,
      "byteOffset": 1193694,
      "componentType": 5123,
      "count": 197973,
      "max": [
        34542.0
      ],
      "min": [
        0.0
      ],
      "name": "buffer-0-group-0-mesh-2-indices",
      "type": "SCALAR"
    },
    {
      "bufferView": 1,
      "byteOffset": 3145632,
      "componentType": 5126,
      "count": 34543,
      "max": [
        24.438640594482422,
        61.64113998413086,
        39.12459945678711
      ],
      "min": [
        -42.83953094482422,
        27.230819702148438,
        -15.20127010345459
      ],
      "name": "buffer-0-group-0-mesh-2-position",
      "type": "VEC3"
    },
    {
      "bufferView": 1,
      "byteOffset": 3560148,
      "componentType": 5126,
      "count": 34543,
      "max": [
        0.9999843835830688,
        0.9999717473983765,
        0.9998764395713806
      ],
      "min": [
        -0.9999047517776489,
        -0.9398014545440674,
        -0.9999681115150452
      ],
      "name": "buffer-0-group-0-mesh-2-normal",
      "type": "VEC3"
    },
    {
      "bufferView": 2,
      "byteOffset": 1048544,
      "componentType": 5126,
      "count": 34543,
      "max": [
        0.4099099934101105,
        -0.002319999970495701
      ],
      "min": [
        0.0012400000123307109,
        -0.9986100196838379
      ],
      "name": "buffer-0-group-0-mesh-2-texcoord",
      "type": "VEC2"
    }
  ],
  "asset": {
    "generator": "Obj2GltfConverter",
    "version": "2.0"
  },
  "bufferViews": [
    {
      "buffer": 0,
      "byteLength": 1589640,
      "byteOffset": 0,
      "name": "buffer-0-bufferview-ushort",
      "target": 34963
    },
    {
      "buffer": 0,
      "byteLength": 3974664,
      "byteOffset": 1589640,
      "byteStride": 12,
      "name": "buffer-0-bufferview-vec3",
      "target": 34962
    },
    {
      "buffer": 0,
      "byteLength": 1324888,
      "byteOffset": 5564304,
      "byteStride": 8,
      "name": "buffer-0-bufferview-vec2",
      "target": 34962
    }
  ],
  "buffers": [
    {
      "byteLength": 6889192,
      "name": "buffer-0",
      "uri": "model_Gnome_20180410_185037947.bin"
    }
  ],
  "images": [
    {
      "mimeType": "image/jpeg",
      "name": "material0-diffuse-image",
      "uri": "texture.jpg"
    }
  ],
  "materials": [
    {
      "alphaMode": "OPAQUE",
      "doubleSided": true,
      "name": "material0",
      "pbrMetallicRoughness": {
        "baseColorFactor": [
          1.0,
          1.0,
          1.0,
          1.0
        ],
        "baseColorTexture": {
          "index": 0,
          "texCoord": 0
        },
        "metallicFactor": 0.0,
        "roughnessFactor": 0.9699476628648295
      }
    }
  ],
  "meshes": [
    {
      "name": "buffer-0-mesh-0",
      "primitives": [
        {
          "attributes": {
            "POSITION": 1,
            "NORMAL": 2,
            "TEXCOORD_0": 3
          },
          "indices": 0,
          "material": 0,
          "mode": 4
        },
        {
          "attributes": {
            "POSITION": 5,
            "NORMAL": 6,
            "TEXCOORD_0": 7
          },
          "indices": 4,
          "material": 0,
          "mode": 4
        },
        {
          "attributes": {
            "POSITION": 9,
            "NORMAL": 10,
            "TEXCOORD_0": 11
          },
          "indices": 8,
          "material": 0,
          "mode": 4
        }
      ]
    }
  ],
  "nodes": [
    {
      "mesh": 0,
      "name": "node-0"
    }
  ],
  "samplers": [
    {
      "name": "material0-diffuse-sampler",
      "wrapS": 10497,
      "wrapT": 10497
    }
  ],
  "scenes": [
    {
      "name": "scene-0",
      "nodes": [
        0
      ]
    }
  ],
  "textures": [
    {
      "name": "material0-diffuse-texture",
      "sampler": 0,
      "source": 0
    }
  ]
}